<svg width="243" height="243" viewBox="0 0 243 243" fill="none" xmlns="http://www.w3.org/2000/svg">
    <path d="M73.3461 35.2738C81.9428 31.0343 93.0225 30.6952 102.434 30.6952C104.312 30.0692 111.926 26.5481 113.853 25.8473C119.388 23.8346 125.491 24.0019 131.01 21.9689C135.162 20.4392 139.455 19.5029 143.533 17.7135C147.006 16.1899 150.493 14.9623 154.307 14.7239C160.433 14.3411 165.581 15.0712 170.843 18.3599C174.865 20.8733 179.872 21.806 183.502 24.8777C188.402 29.0237 191.209 34.3352 193.79 40.1217C195.367 43.6549 198.275 48.5334 198.423 52.5109C198.507 54.7754 198.423 57.0582 198.423 59.3249C198.423 67.3163 202.301 74.7561 202.301 82.7566C202.301 91.4522 204.109 100.76 206.664 109.124C208.017 113.552 210.274 117.674 210.92 122.321C211.503 126.521 211.512 130.668 211.512 134.899C211.512 140.273 213.507 145.209 213.828 150.547C214.041 154.087 214.201 162.424 210.543 164.66C208.384 165.979 203.201 164.983 200.847 164.983C195.705 164.983 190.255 165.116 186.842 169.615C184.378 172.863 182.345 175.449 179.139 178.072C177.445 179.459 177.181 180.855 176.849 182.974C176.247 186.83 176.607 190.934 176.607 194.825C176.607 199.021 176.014 202.776 175.422 206.918C174.41 214.005 174.687 215.684 166.884 218.667C161.449 220.745 156.233 221.431 150.374 221.226C146.784 221.1 142.446 221.398 139.009 220.094C135.606 218.804 134.02 217.637 132.275 214.439C129.992 210.252 128.089 214.195 126.781 209.584C125.615 205.475 125.804 201.031 124.626 197.006C123.393 192.792 115.216 192.912 111.887 192.616C108.035 192.274 104.141 192.069 100.495 190.677C95.969 188.949 104.84 216.587 93.4616 222.566C82.4901 224.308 84.2612 198.498 80.0519 197.006C67.7959 192.662 65.7097 186.348 55.6707 190.677C50.1712 193.048 42.7041 182.946 36.9866 181.358C32.192 180.026 31.2468 176.612 30.5765 172.255C29.8385 167.458 27.2318 162.972 25.9441 158.304C24.7379 153.931 25.9186 148.044 25.8363 143.598C25.8008 141.681 24.5505 140.357 23.6817 138.777C21.829 135.409 19.6495 131.834 18.2951 128.246C14.7126 118.758 13.9499 106.499 15.3863 96.5194C16.2315 90.6479 20.0635 86.1774 22.8468 81.1676C24.1492 78.8231 23.9817 76.9581 22.5505 74.8114C19.9329 70.885 23.8347 64.4678 24.8667 60.7524C26.1174 56.2499 28.6362 50.8047 33.1082 48.6326C41.925 44.3501 52.9655 49.0328 62.1958 45.7238C67.6555 43.7665 68.1268 37.8477 73.3461 35.2738Z" fill="#F4F7FA"/>
    <path d="M166.15 99.853C170.155 99.1603 175.379 99.8783 176.563 103.768C177.423 106.592 175.566 109.474 173.634 111.711C170.868 114.9 167.744 117.763 164.327 120.24C167.243 119.02 170.792 117.863 173.362 119.692C175.216 121.015 175.86 123.58 175.452 125.823C175.045 128.065 173.767 130.047 172.401 131.873C169.088 136.295 165.108 140.175 160.605 143.377C163.458 141.438 167.202 139.6 170.192 141.33C172.36 142.587 173.23 145.426 172.793 147.894C172.355 150.362 170.856 152.511 169.203 154.393C165.086 159.065 159.841 162.608 153.97 164.681C154.077 164.643 150.981 149.279 150.751 147.848C149.834 142.142 149.087 136.41 148.51 130.654C147.981 125.36 147.876 120.004 147.21 114.729C147.031 113.321 146.735 111.81 147.163 110.419C147.691 108.704 149.207 107.529 150.593 106.51C155.194 103.12 160.52 100.841 166.15 99.853ZM53.5048 207.821C41.5633 187.805 41.0735 163.166 42.0388 139.877C42.2464 134.849 42.5254 129.733 44.299 125.02C46.5291 119.091 50.9561 114.272 55.5289 109.893C63.6035 102.198 72.4215 95.3244 81.853 89.3712C84.2845 87.8305 86.9711 86.2931 89.8416 86.5292C92.8975 86.7797 95.4019 88.9765 97.5733 91.1417C115.234 108.761 126.793 131.426 138.063 153.681C139.317 156.158 140.599 158.712 140.835 161.478C141.102 164.527 140.084 167.528 139.082 170.42C136.229 178.663 133.349 186.954 129.255 194.66C126.709 199.452 123.525 204.17 118.813 206.854C115.368 208.819 111.363 209.548 107.437 210.079C99.9287 211.097 92.3523 211.506 84.779 211.595C77.2057 211.683 69.6008 211.436 62.018 211.119C60.4536 211.056 58.6102 211.255 57.0918 210.818C55.5036 210.369 54.3306 209.206 53.5048 207.821Z" fill="#FBD2B5"/>
    <path d="M60.5772 40.9027C60.3141 38.2779 60.4599 33.6116 61.5551 31.215C63.6157 26.6898 68.1726 24.9478 71.4172 24.5294C107.017 19.9328 130.908 21.4909 161.837 24.5199C166.047 24.932 170.883 25.7229 173.031 29.3685C174.529 31.9045 174.213 35.0746 173.852 38.0053L155.763 184.364C155.616 185.556 155.438 186.818 154.679 187.748C153.555 189.121 151.566 189.32 149.794 189.411C129.027 190.466 108.24 190.845 87.4339 190.546C85.7585 190.522 83.9959 190.469 82.5599 189.604C80.2442 188.208 79.5484 185.228 79.0728 182.567L73.9802 154.54C73.2257 150.389 72.2224 146.204 71.8039 142.004C71.3728 137.683 70.7958 133.375 70.2791 129.064C69.1422 119.644 68.0401 110.222 66.9728 100.796C65.9067 91.4055 64.8694 82.0104 63.8614 72.6112C62.8533 63.212 61.8759 53.8107 60.9291 44.4072L60.5772 40.9027Z" fill="#57585C"/>
    <path d="M111.875 178.821C112.105 182.058 115.112 184.884 118.358 184.884C122.655 184.884 126.318 181.777 125.332 176.705C124.799 173.968 121.545 171.817 118.779 171.674C116.537 171.56 114.341 172.514 113.048 174.345C112.308 175.388 111.736 176.848 111.875 178.821Z" fill="black"/>
    <path d="M115.473 179.274C115.373 179.275 115.275 179.242 115.194 179.181C115.113 179.12 115.052 179.035 115.021 178.937C114.99 178.839 114.991 178.732 115.022 178.633C115.053 178.536 115.113 178.45 115.194 178.389C117.136 176.938 119.164 175.614 121.266 174.424C121.321 174.389 121.382 174.366 121.446 174.356C121.509 174.347 121.574 174.35 121.637 174.366C121.699 174.383 121.757 174.413 121.808 174.454C121.859 174.495 121.902 174.546 121.933 174.605C121.963 174.662 121.982 174.727 121.988 174.793C121.995 174.859 121.988 174.925 121.968 174.989C121.949 175.052 121.917 175.11 121.874 175.16C121.833 175.21 121.781 175.252 121.723 175.28C119.655 176.451 117.661 177.754 115.752 179.181C115.671 179.242 115.573 179.275 115.473 179.274ZM118.283 181.344C118.169 181.344 118.058 181.3 117.973 181.221C117.925 181.18 117.887 181.128 117.859 181.071C117.831 181.013 117.814 180.951 117.81 180.886C117.805 180.823 117.813 180.758 117.833 180.697C117.853 180.635 117.884 180.579 117.925 180.53C118.756 179.552 119.756 178.741 120.876 178.14C120.932 178.111 120.992 178.094 121.054 178.088C121.117 178.083 121.178 178.09 121.238 178.11C121.298 178.129 121.353 178.16 121.4 178.202C121.447 178.243 121.487 178.295 121.515 178.351C121.544 178.408 121.561 178.471 121.567 178.534C121.572 178.599 121.565 178.664 121.546 178.725C121.527 178.786 121.496 178.843 121.456 178.891C121.417 178.94 121.367 178.981 121.311 179.01C120.299 179.554 119.396 180.288 118.646 181.175C118.601 181.229 118.545 181.271 118.483 181.301C118.42 181.33 118.352 181.345 118.283 181.344Z" fill="white"/>
    <path d="M118.358 185.518C114.757 185.518 111.498 182.471 111.243 178.861C111.111 177.008 111.544 175.364 112.53 173.974C113.926 172.005 116.273 170.909 118.811 171.037C121.77 171.195 125.346 173.451 125.955 176.585C126.43 178.992 125.955 181.14 124.584 182.796C123.157 184.526 120.889 185.518 118.358 185.518ZM112.507 178.775C112.713 181.692 115.448 184.25 118.358 184.25C120.509 184.25 122.422 183.426 123.606 181.99C124.715 180.636 125.104 178.85 124.715 176.827C124.229 174.318 121.182 172.432 118.752 172.308C116.651 172.197 114.714 173.101 113.571 174.713C112.759 175.857 112.403 177.223 112.514 178.775H112.507Z" fill="black"/>
    <path d="M70.0275 38.186C69.0305 40.1895 69.1335 42.5401 69.2682 44.7718C71.4759 81.3187 76.1095 117.679 83.1388 153.611C83.4748 155.333 83.8473 157.119 84.9077 158.517C86.8953 161.135 90.59 161.589 93.8694 161.79C108.11 162.663 122.387 162.816 136.643 162.243C139.021 162.148 141.476 162.01 143.576 160.902C148.242 158.439 149.374 152.384 149.975 147.141C153.955 112.431 157.86 77.7123 161.693 42.9855C161.95 40.6634 162.124 38.0497 160.615 36.2649C159.254 34.653 156.97 34.2615 154.869 33.9936C142.845 32.4566 130.747 31.5571 118.628 31.2991C112.567 31.1691 106.508 31.1992 100.449 31.3894C97.3866 31.4861 78.0097 33.3532 75.797 33.9793C73.4353 34.6482 71.1592 35.9115 70.0275 38.186Z" fill="white"/>
    <path d="M143.936 123.537H143.924C126.74 122.954 109.312 122.561 92.1235 122.371C92.0083 122.371 91.8978 122.31 91.8163 122.201C91.7349 122.091 91.6892 121.943 91.6892 121.789C91.6892 121.634 91.7349 121.486 91.8163 121.377C91.8978 121.267 92.0083 121.206 92.1235 121.206C109.316 121.4 126.754 121.789 143.939 122.371C144.054 122.373 144.165 122.437 144.245 122.547C144.326 122.658 144.37 122.807 144.368 122.961C144.367 123.116 144.32 123.263 144.238 123.371C144.155 123.479 144.043 123.539 143.928 123.537H143.936Z" fill="black"/>
    <path d="M138.892 131.928H138.882C125.044 131.345 111.009 130.952 97.1668 130.763C97.0741 130.763 96.9851 130.701 96.9195 130.592C96.8539 130.483 96.8171 130.335 96.8171 130.18C96.8171 130.026 96.8539 129.877 96.9195 129.768C96.9851 129.659 97.0741 129.597 97.1668 129.597C111.012 129.791 125.055 130.18 138.895 130.763C138.987 130.765 139.076 130.828 139.141 130.939C139.206 131.049 139.242 131.198 139.24 131.353C139.239 131.507 139.201 131.655 139.135 131.763C139.068 131.871 138.978 131.93 138.886 131.928H138.892Z" fill="black"/>
    <path d="M143.936 140.319H143.924C126.74 139.737 109.312 139.343 92.1235 139.154C92.0083 139.154 91.8978 139.093 91.8163 138.983C91.7349 138.874 91.6892 138.726 91.6892 138.571C91.6892 138.417 91.7349 138.269 91.8163 138.159C91.8978 138.05 92.0083 137.989 92.1235 137.989C109.316 138.182 126.754 138.571 143.939 139.154C144.054 139.156 144.165 139.219 144.245 139.33C144.326 139.441 144.37 139.59 144.368 139.744C144.367 139.899 144.32 140.046 144.238 140.154C144.155 140.262 144.043 140.321 143.928 140.319H143.936Z" fill="black"/>
    <path d="M98.4711 99.1809C98.8859 101.932 99.3957 104.687 100.372 107.294C100.557 107.783 100.789 108.307 101.255 108.542C101.864 108.85 102.589 108.542 103.205 108.248C111.219 104.447 120.086 102.799 128.93 103.467C131.358 103.652 133.771 104.016 136.204 104.135C136.686 104.159 137.22 104.156 137.583 103.838C137.969 103.5 138.026 102.929 138.052 102.417C138.641 90.7418 137.526 79.0433 134.743 67.6896C134.329 66.0044 133.873 64.3111 133.06 62.7782C132.843 62.3677 132.584 61.9535 132.181 61.7217C131.67 61.4289 131.04 61.4874 130.455 61.5589C118.752 62.9927 107.242 66.1203 95.4582 66.5037C94.4103 66.5376 93.1023 66.561 92.3762 67.4443C91.8646 68.065 92.2942 68.7116 92.661 69.2824C93.9018 71.216 94.4232 73.6015 94.9681 75.8125C95.5691 78.2516 96.0228 80.7248 96.4013 83.2095C96.7816 85.7089 97.0854 88.2189 97.3875 90.7295C97.6895 93.24 97.9798 95.7512 98.3398 98.2538C98.3805 98.562 98.4243 98.8708 98.4711 99.1809Z" fill="#FF8D55"/>
    <path d="M116.57 85.2164C116.856 85.4747 117.176 85.7435 117.56 85.7712C117.92 85.7965 118.257 85.6042 118.552 85.397C120.07 84.335 121.141 82.7644 122.21 81.2536C126.444 75.2833 131.23 69.7235 136.502 64.6471C137.104 64.0671 137.778 63.468 138.536 63.1709C138.665 63.1206 138.805 63.1042 138.942 63.1231C139.079 63.142 139.209 63.1957 139.319 63.2791C139.429 63.3625 139.517 63.4727 139.572 63.5993C139.629 63.7259 139.651 63.8647 139.638 64.0024C139.532 65.0601 138.885 66.0951 138.269 67.011C134.101 73.2035 130.279 79.622 126.821 86.2378C124.884 89.9448 122.472 94.0155 120.511 97.0636C120.112 97.6836 119.541 98.2569 118.822 98.4196C117.548 98.7106 116.462 97.5221 115.695 96.4644L110.04 88.659L104.318 80.763L102.894 78.7965C102.472 78.2134 101.908 77.6112 101.665 76.9239C101.265 75.7953 102.117 75.0581 103.211 75.1918C104.403 75.3373 105.652 76.1355 106.663 76.7464C107.796 77.445 108.878 78.2253 109.898 79.0813C111.975 80.7981 113.868 82.7182 115.843 84.5507C116.084 84.7739 116.326 84.9958 116.57 85.2164Z" fill="#1B5EC9"/>
    <path d="M116.598 95.2107C116.921 95.7365 117.338 96.3202 117.951 96.3664C118.564 96.4126 119.053 95.9053 119.416 95.4178C119.966 94.6781 120.412 93.5723 119.769 92.9121C119.486 92.6218 119.068 92.5195 118.688 92.3777C116.413 91.5326 115.206 89.125 113.589 87.3153C113.158 86.8314 110.151 84.3442 112.588 88.5006C112.941 89.1016 113.303 89.6822 113.671 90.2709C114.213 91.1338 114.661 92.0584 115.195 92.9263L116.598 95.2107ZM99.9689 93.2333C99.9084 93.2333 99.8498 93.2117 99.8043 93.1716C99.7588 93.1316 99.7297 93.0761 99.7224 93.0163C99.077 87.7677 98.2474 82.4716 97.2568 77.2765C97.2445 77.2122 97.2584 77.1457 97.2951 77.0916C97.3318 77.0376 97.3886 77.0003 97.4528 76.988C97.5171 76.9757 97.5836 76.9895 97.6377 77.0263C97.6917 77.063 97.729 77.1198 97.7413 77.184C98.7331 82.3903 99.5646 87.6962 100.211 92.9565C100.216 92.991 100.212 93.0268 100.202 93.0601C100.191 93.0933 100.174 93.1242 100.151 93.1507C100.127 93.1766 100.099 93.1975 100.067 93.2117C100.034 93.2259 99.9997 93.2333 99.9646 93.2333H99.9689ZM100.606 98.7124C100.55 98.7118 100.495 98.6927 100.451 98.6569C100.407 98.6206 100.377 98.5713 100.365 98.5158C100.148 97.471 100.106 96.9101 100.078 96.3818C100.076 96.3491 100.081 96.3171 100.092 96.2863C100.103 96.2555 100.119 96.2277 100.141 96.2037C100.163 96.1796 100.189 96.1599 100.218 96.1457C100.248 96.1316 100.279 96.1236 100.312 96.1223C100.344 96.1205 100.376 96.1248 100.407 96.1359C100.438 96.147 100.466 96.1636 100.49 96.1852C100.514 96.2068 100.534 96.2333 100.547 96.2622C100.561 96.2918 100.57 96.3233 100.571 96.3559C100.598 96.8645 100.639 97.4038 100.849 98.4153C100.862 98.4788 100.849 98.546 100.813 98.6002C100.778 98.6551 100.721 98.6933 100.657 98.7069C100.641 98.7106 100.623 98.7124 100.606 98.7124ZM102.776 106.188C102.387 106.188 102.086 106.069 101.897 105.77C101.678 105.421 101.045 102.459 101.085 101.52C101.087 101.488 101.094 101.456 101.108 101.427C101.122 101.397 101.141 101.371 101.165 101.349C101.189 101.327 101.217 101.31 101.247 101.299C101.278 101.288 101.31 101.283 101.342 101.284C101.375 101.286 101.406 101.293 101.436 101.307C101.465 101.321 101.492 101.34 101.514 101.364C101.536 101.388 101.552 101.416 101.564 101.446C101.575 101.476 101.58 101.509 101.578 101.541C101.541 102.391 102.158 105.228 102.318 105.508C102.604 105.962 103.836 105.508 105.14 105.031C106.174 104.651 107.346 104.221 108.486 104.052C108.518 104.047 108.552 104.047 108.584 104.055C108.616 104.062 108.646 104.076 108.673 104.095C108.7 104.114 108.723 104.139 108.74 104.167C108.757 104.195 108.768 104.227 108.773 104.259C108.778 104.292 108.776 104.325 108.768 104.357C108.76 104.389 108.745 104.419 108.725 104.446C108.705 104.471 108.68 104.494 108.651 104.51C108.622 104.526 108.591 104.536 108.558 104.54C107.468 104.701 106.322 105.122 105.31 105.494C104.299 105.866 103.416 106.188 102.776 106.188ZM104.197 67.4485C104.132 67.4532 104.067 67.4317 104.018 67.3887C103.968 67.3458 103.938 67.2849 103.933 67.2195C103.929 67.1541 103.95 67.0896 103.993 67.04C104.036 66.9905 104.097 66.96 104.162 66.9554C106.481 66.6188 108.84 66.2157 111.122 65.8224C113.404 65.4292 115.769 65.0254 118.094 64.6876C118.159 64.6783 118.225 64.695 118.277 64.7341C118.33 64.7732 118.364 64.8316 118.374 64.8963C118.383 64.961 118.366 65.0268 118.327 65.0793C118.288 65.1317 118.23 65.1665 118.165 65.1758C115.846 65.5124 113.486 65.9155 111.205 66.3088C108.924 66.702 106.558 67.1058 104.233 67.4435C104.221 67.4472 104.209 67.4485 104.197 67.4485ZM121.871 64.4344C121.81 64.4343 121.751 64.4115 121.706 64.3705C121.661 64.3295 121.632 64.2731 121.627 64.2123C121.62 64.1515 121.637 64.0906 121.673 64.0415C121.71 63.9923 121.763 63.9583 121.823 63.9462C122.775 63.7533 124.262 63.5147 125.317 63.466C125.382 63.4632 125.446 63.4865 125.494 63.5308C125.543 63.5751 125.572 63.6367 125.574 63.7021C125.577 63.7675 125.554 63.8314 125.509 63.8796C125.465 63.9278 125.403 63.9564 125.338 63.9591C124.311 64.0035 122.856 64.2402 121.921 64.4294C121.905 64.4326 121.888 64.4342 121.871 64.4344Z" fill="white"/>
    <path d="M117.613 86.0633C116.853 86.0633 116.188 85.3544 115.673 84.8058C115.524 84.6394 115.366 84.481 115.2 84.3306C115.041 84.195 114.627 83.8227 114.055 83.3074C112.172 81.6111 108.251 78.0818 107.185 77.4414C107.131 77.4069 107.092 77.3526 107.078 77.2901C107.063 77.2276 107.073 77.1619 107.106 77.1068C107.139 77.0517 107.192 77.0116 107.254 76.9952C107.316 76.9787 107.382 76.9871 107.438 77.0186C108.548 77.6837 112.345 81.1038 114.385 82.9412C114.955 83.4535 115.366 83.8239 115.52 83.9552C115.7 84.1173 115.872 84.2887 116.033 84.4687C116.762 85.2459 117.37 85.8124 118.01 85.4598C118.039 85.4432 118.07 85.4315 118.103 85.4272C118.136 85.4222 118.169 85.4247 118.201 85.4327C118.233 85.4413 118.264 85.4567 118.289 85.4771C118.316 85.4974 118.337 85.5227 118.354 85.5523C118.37 85.5813 118.379 85.6133 118.383 85.646C118.386 85.6793 118.383 85.7126 118.373 85.7446C118.363 85.776 118.347 85.8056 118.326 85.8309C118.304 85.8562 118.278 85.8765 118.248 85.8913C118.055 86.0029 117.836 86.062 117.613 86.0633ZM102.129 77.7428C102.093 77.7428 102.057 77.7349 102.024 77.7195C101.992 77.7042 101.963 77.6818 101.94 77.6541C101.602 77.2485 101.416 76.8608 101.37 76.4693C101.308 75.9448 101.539 75.4344 101.943 75.1977C102.287 74.9955 102.672 74.9974 102.934 75.0338C103.71 75.1435 104.809 75.522 105.383 75.8099C105.442 75.8392 105.486 75.8905 105.507 75.9526C105.527 76.0147 105.522 76.0824 105.493 76.1408C105.464 76.1992 105.412 76.2437 105.35 76.2643C105.288 76.2849 105.22 76.2799 105.162 76.2506C104.623 75.9806 103.591 75.6249 102.865 75.5226C102.605 75.4856 102.365 75.5226 102.192 75.623C101.959 75.7599 101.822 76.0847 101.86 76.4126C101.894 76.706 102.045 77.0087 102.319 77.3372C102.36 77.3875 102.38 77.4524 102.374 77.5174C102.368 77.5825 102.337 77.6425 102.287 77.6843C102.243 77.722 102.187 77.7428 102.129 77.7428ZM103.635 80.0596C103.598 80.0596 103.562 80.0516 103.529 80.0356C103.496 80.0201 103.467 79.9973 103.444 79.9696C103.139 79.5991 102.862 79.2068 102.615 78.7951C102.582 78.739 102.572 78.6718 102.588 78.6083C102.604 78.5449 102.644 78.4903 102.7 78.4567C102.756 78.4231 102.824 78.4132 102.887 78.4292C102.95 78.4451 103.005 78.4856 103.039 78.5418C103.272 78.9321 103.535 79.3044 103.824 79.6559C103.854 79.6916 103.873 79.7354 103.879 79.7816C103.885 79.8284 103.878 79.8753 103.858 79.9178C103.838 79.9604 103.806 79.9961 103.767 80.0208C103.727 80.046 103.681 80.0596 103.635 80.0596ZM108.367 86.7413C108.323 86.7413 108.281 86.7302 108.243 86.708C108.205 86.6865 108.174 86.6556 108.152 86.618C107.083 84.7485 105.864 82.9684 104.508 81.2961C104.469 81.2449 104.451 81.1808 104.459 81.1173C104.466 81.0532 104.498 80.9953 104.548 80.9546C104.598 80.9145 104.661 80.8948 104.725 80.9004C104.789 80.9059 104.848 80.9361 104.89 80.9848C106.264 82.678 107.498 84.4804 108.581 86.3733C108.597 86.4011 108.607 86.4319 108.611 86.4646C108.615 86.4966 108.613 86.5293 108.604 86.5601C108.596 86.5915 108.581 86.6211 108.561 86.6464C108.542 86.6723 108.517 86.6932 108.489 86.7099C108.451 86.7302 108.409 86.7413 108.367 86.7413ZM118.345 98.6581C117.848 98.6581 117.355 98.5003 116.994 98.1218C116.972 98.0978 116.955 98.0707 116.943 98.0405C116.931 98.0103 116.926 97.9776 116.927 97.9455C116.927 97.9129 116.935 97.8814 116.948 97.8518C116.961 97.8222 116.98 97.7951 117.004 97.7729C117.027 97.7508 117.054 97.7335 117.084 97.7218C117.115 97.7101 117.147 97.7045 117.179 97.7051C117.212 97.7064 117.244 97.7132 117.274 97.7267C117.303 97.7397 117.33 97.7581 117.352 97.7822C117.867 98.3234 118.779 98.2389 119.376 97.8845C120.072 97.4703 120.557 96.7503 120.94 96.1013C122.453 93.5352 123.784 91.016 125.07 88.5813C126.629 85.6318 128.102 82.8488 129.849 80.022C130.26 79.3584 130.589 78.8605 130.908 78.408C130.926 78.3816 130.95 78.3591 130.977 78.3418C131.005 78.3246 131.036 78.3129 131.067 78.3075C131.099 78.3021 131.132 78.3029 131.163 78.3101C131.195 78.3174 131.225 78.3307 131.252 78.3494C131.278 78.3682 131.3 78.3919 131.318 78.4194C131.335 78.4468 131.347 78.4774 131.352 78.5093C131.358 78.5412 131.356 78.5739 131.35 78.6055C131.342 78.6371 131.329 78.667 131.31 78.6934C130.995 79.1372 130.674 79.6275 130.269 80.2821C128.53 83.0916 127.061 85.8704 125.506 88.8118C124.215 91.2533 122.881 93.7775 121.363 96.3534C120.949 97.0567 120.418 97.8389 119.626 98.3104C119.237 98.536 118.795 98.6562 118.345 98.6581ZM132.017 77.3058C131.978 77.3058 131.939 77.2965 131.904 77.2788C131.869 77.261 131.84 77.2353 131.816 77.2036C131.793 77.1719 131.779 77.1353 131.772 77.0967C131.767 77.0581 131.77 77.0186 131.782 76.9816C131.897 76.6382 132.076 76.32 132.31 76.044C132.331 76.0194 132.357 75.9991 132.386 75.9844C132.414 75.9696 132.446 75.9607 132.478 75.9582C132.51 75.9556 132.543 75.9593 132.574 75.9693C132.605 75.9793 132.633 75.9953 132.658 76.0162C132.682 76.0372 132.703 76.063 132.717 76.0917C132.732 76.1206 132.741 76.1521 132.743 76.1843C132.746 76.2166 132.742 76.2491 132.732 76.2799C132.722 76.3107 132.706 76.3393 132.685 76.3639C132.494 76.5913 132.347 76.8535 132.254 77.1363C132.237 77.1861 132.206 77.2294 132.163 77.2599C132.12 77.2903 132.069 77.3064 132.017 77.3058ZM136.53 69.7027C136.484 69.7027 136.439 69.6897 136.4 69.6651C136.36 69.6405 136.329 69.6054 136.308 69.5636C136.288 69.522 136.28 69.4754 136.285 69.4294C136.29 69.3833 136.308 69.3396 136.337 69.3033C137.184 68.2283 139.531 64.7549 139.183 63.6743C139.113 63.458 139.003 63.4093 138.927 63.3914C138.453 63.2792 137.52 63.9714 137.246 64.2544C137.2 64.2995 137.138 64.3249 137.074 64.3251C137.009 64.3253 136.947 64.3002 136.901 64.2552C136.855 64.2102 136.828 64.1489 136.827 64.0845C136.825 64.0201 136.849 63.9576 136.893 63.9104C137.13 63.6676 138.254 62.7288 139.04 62.9131C139.245 62.9612 139.517 63.1066 139.652 63.5246C140.171 65.1364 136.758 69.5652 136.724 69.6108C136.701 69.6397 136.671 69.663 136.638 69.6789C136.604 69.6948 136.567 69.7029 136.53 69.7027ZM130.795 70.7862C130.747 70.7863 130.699 70.772 130.659 70.7453C130.619 70.7184 130.587 70.6803 130.568 70.6357C130.55 70.591 130.544 70.5418 130.553 70.4941C130.562 70.4464 130.585 70.4025 130.619 70.3677C130.828 70.1526 131.211 69.7445 131.654 69.2724C133.366 67.4491 134.939 65.7885 135.376 65.4994C135.403 65.4815 135.433 65.4692 135.465 65.463C135.497 65.4568 135.529 65.4569 135.561 65.4634C135.593 65.4698 135.623 65.4823 135.65 65.5005C135.677 65.5186 135.699 65.5418 135.718 65.5688C135.736 65.5958 135.748 65.626 135.754 65.6578C135.761 65.6896 135.761 65.7223 135.754 65.7541C135.748 65.7858 135.735 65.8159 135.717 65.8428C135.698 65.8696 135.675 65.8927 135.648 65.9106C135.224 66.1916 133.214 68.3318 132.012 69.6089C131.567 70.0829 131.183 70.4916 130.971 70.7104C130.948 70.7341 130.921 70.753 130.89 70.766C130.861 70.779 130.828 70.7859 130.795 70.7862Z" fill="black"/>
    <path d="M58.1296 221.986C58.0107 221.986 57.8942 221.953 57.7934 221.889C57.6925 221.828 57.6113 221.737 57.559 221.631C55.1735 216.773 54.8993 210.282 56.8616 205.096C56.8912 205.018 56.9358 204.947 56.993 204.885C57.0501 204.825 57.1185 204.776 57.1946 204.741C57.2707 204.708 57.3526 204.689 57.436 204.686C57.5194 204.684 57.6023 204.698 57.6803 204.727C57.7583 204.757 57.8296 204.801 57.8903 204.858C57.951 204.915 57.9998 204.984 58.034 205.06C58.0683 205.136 58.0873 205.218 58.0897 205.302C58.0922 205.385 58.0784 205.469 58.0488 205.546C56.2323 210.344 56.4939 216.583 58.6971 221.08C58.734 221.154 58.7557 221.235 58.7609 221.319C58.7663 221.401 58.7552 221.485 58.7283 221.565C58.7013 221.642 58.6592 221.715 58.604 221.779C58.5489 221.84 58.482 221.893 58.407 221.929C58.32 221.969 58.2252 221.988 58.1296 221.986ZM63.1291 217.889C62.9955 217.889 62.8652 217.846 62.7571 217.767C62.6488 217.689 62.5683 217.578 62.5268 217.451C61.5962 214.521 61.6626 211.366 62.7154 208.479C62.7752 208.322 62.8948 208.193 63.0483 208.125C63.2017 208.055 63.3762 208.051 63.5333 208.111C63.6905 208.169 63.8176 208.29 63.8866 208.444C63.9555 208.596 63.9608 208.772 63.901 208.929C62.9643 211.401 62.8993 214.516 63.733 217.057C63.759 217.136 63.7691 217.218 63.7628 217.302C63.7565 217.385 63.7338 217.466 63.6962 217.54C63.6585 217.615 63.6065 217.681 63.5433 217.735C63.4799 217.789 63.4065 217.83 63.3272 217.857C63.2634 217.878 63.1965 217.889 63.1291 217.889ZM69.7086 220.908C69.6865 220.91 69.6642 220.91 69.642 220.908C69.4751 220.891 69.3218 220.807 69.2159 220.677C69.1102 220.547 69.0604 220.379 69.0777 220.213C69.5748 215.421 69.6564 210.595 69.3218 205.789C69.3161 205.705 69.3269 205.621 69.3535 205.543C69.38 205.464 69.422 205.391 69.4768 205.328C69.5315 205.264 69.5982 205.213 69.673 205.175C69.7477 205.139 69.829 205.117 69.9122 205.11C69.9956 205.106 70.0791 205.115 70.1582 205.142C70.2373 205.169 70.3104 205.21 70.3733 205.266C70.4362 205.321 70.4878 205.388 70.525 205.462C70.5621 205.537 70.5841 205.618 70.5898 205.702C70.9289 210.579 70.8455 215.475 70.341 220.338C70.3253 220.495 70.2519 220.639 70.1349 220.745C70.0181 220.85 69.8661 220.908 69.7086 220.908ZM76.89 220.17C76.8585 220.171 76.8266 220.171 76.7949 220.17C76.6286 220.144 76.4792 220.054 76.3793 219.919C76.2794 219.783 76.2374 219.615 76.2623 219.449C76.8485 215.556 76.9432 211.604 76.5445 207.688C76.5361 207.604 76.5441 207.52 76.5682 207.44C76.5923 207.36 76.6319 207.285 76.6847 207.22C76.7377 207.155 76.8028 207.101 76.8765 207.062C76.9502 207.022 77.0311 206.998 77.1143 206.989C77.1976 206.981 77.2817 206.989 77.3619 207.012C77.4421 207.036 77.5166 207.076 77.5814 207.13C77.6462 207.182 77.7001 207.247 77.7397 207.321C77.7793 207.394 77.8041 207.475 77.8125 207.559C78.222 211.58 78.1246 215.638 77.5224 219.637C77.4982 219.786 77.421 219.922 77.305 220.021C77.1889 220.117 77.0417 220.171 76.89 220.17ZM82.9464 219.409H82.8655C82.6988 219.387 82.5476 219.301 82.4447 219.168C82.3419 219.035 82.296 218.867 82.3171 218.7C82.9489 213.685 82.8695 208.607 82.081 203.614C82.0542 203.448 82.0946 203.278 82.1932 203.142C82.2916 203.005 82.4403 202.914 82.6064 202.887C82.7723 202.86 82.9423 202.901 83.0786 202.999C83.2149 203.097 83.3063 203.246 83.3331 203.413C84.1404 208.525 84.222 213.725 83.5756 218.86C83.5549 219.013 83.4797 219.152 83.3639 219.252C83.2482 219.353 83.0998 219.409 82.9464 219.409ZM90.1934 220.17C90.153 220.17 90.1126 220.165 90.073 220.157C89.9912 220.141 89.9132 220.109 89.8436 220.064C89.7742 220.018 89.7143 219.959 89.6677 219.889C89.6209 219.819 89.5884 219.742 89.5716 219.661C89.555 219.578 89.5547 219.495 89.5705 219.414C90.4497 214.808 90.26 210.064 89.0158 205.543C88.9928 205.462 88.9858 205.378 88.9955 205.296C89.005 205.212 89.0308 205.133 89.0716 205.06C89.1121 204.987 89.1668 204.922 89.2323 204.871C89.2979 204.819 89.3729 204.781 89.4532 204.758C89.5336 204.735 89.6178 204.728 89.7005 204.738C89.7834 204.749 89.8636 204.774 89.9363 204.816C90.0091 204.857 90.073 204.912 90.1245 204.977C90.176 205.044 90.2139 205.118 90.2362 205.199C91.5336 209.91 91.7314 214.857 90.8148 219.656C90.7869 219.8 90.7095 219.93 90.5962 220.024C90.4829 220.117 90.3405 220.17 90.1934 220.17ZM97.1135 218.307C97.0737 218.307 97.0339 218.304 96.9946 218.296C96.9128 218.28 96.835 218.249 96.7653 218.203C96.6957 218.157 96.6358 218.098 96.589 218.03C96.5423 217.96 96.5094 217.883 96.4925 217.802C96.4757 217.719 96.4751 217.635 96.4906 217.554C97.1111 214.253 97.0896 210.862 96.4272 207.569C96.396 207.412 96.4245 207.25 96.5071 207.114C96.5896 206.979 96.7203 206.879 96.8732 206.835C97.026 206.791 97.1897 206.805 97.3321 206.876C97.4744 206.947 97.5847 207.069 97.6413 207.218L97.9821 208.119C98.0179 208.214 98.0303 208.315 98.0181 208.417C98.006 208.518 97.9697 208.615 97.9124 208.699C98.3601 211.718 98.3012 214.792 97.738 217.792C97.7104 217.936 97.6328 218.068 97.5188 218.161C97.4047 218.257 97.2614 218.307 97.1135 218.307ZM104.179 218.268C104.135 218.268 104.091 218.263 104.048 218.253C103.966 218.236 103.889 218.203 103.82 218.155C103.752 218.109 103.693 218.049 103.647 217.979C103.602 217.909 103.571 217.832 103.555 217.749C103.54 217.667 103.541 217.583 103.558 217.502C104.539 212.806 104.761 207.982 104.216 203.216C104.197 203.048 104.245 202.879 104.35 202.746C104.455 202.614 104.609 202.528 104.777 202.509C104.945 202.49 105.114 202.538 105.247 202.642C105.379 202.749 105.465 202.902 105.484 203.07C106.043 207.973 105.815 212.934 104.807 217.765C104.777 217.908 104.698 218.036 104.583 218.128C104.469 218.22 104.326 218.269 104.179 218.268ZM111.111 218.268C111.062 218.268 111.013 218.261 110.965 218.25C110.884 218.231 110.807 218.196 110.739 218.149C110.671 218.1 110.614 218.038 110.57 217.968C110.526 217.897 110.496 217.819 110.482 217.737C110.468 217.654 110.471 217.57 110.49 217.489C110.976 215.367 111.12 213.181 110.916 211.015C110.908 210.931 110.917 210.847 110.941 210.767C110.966 210.687 111.006 210.612 111.059 210.549C111.112 210.484 111.178 210.43 111.252 210.392C111.326 210.352 111.406 210.328 111.49 210.32C111.573 210.312 111.657 210.32 111.737 210.346C111.817 210.369 111.891 210.409 111.956 210.463C112.02 210.517 112.074 210.582 112.113 210.656C112.152 210.729 112.176 210.81 112.184 210.894C112.402 213.197 112.249 215.522 111.731 217.778C111.698 217.917 111.619 218.041 111.506 218.131C111.394 218.22 111.254 218.268 111.111 218.268ZM117.029 219.8C116.965 219.8 116.901 219.789 116.839 219.77C116.679 219.72 116.546 219.609 116.468 219.46C116.39 219.311 116.374 219.138 116.424 218.978C117.359 215.984 117.992 212.904 118.313 209.785C118.322 209.701 118.347 209.62 118.387 209.547C118.427 209.472 118.48 209.407 118.545 209.355C118.61 209.303 118.685 209.263 118.765 209.239C118.846 209.216 118.93 209.208 119.013 209.216C119.096 209.225 119.177 209.249 119.251 209.29C119.324 209.33 119.389 209.384 119.442 209.449C119.495 209.514 119.534 209.588 119.558 209.667C119.582 209.748 119.59 209.832 119.581 209.916C119.251 213.123 118.6 216.288 117.64 219.365C117.598 219.493 117.516 219.604 117.406 219.682C117.296 219.761 117.164 219.802 117.029 219.8ZM123.04 214.928C122.946 214.93 122.854 214.909 122.769 214.871C122.684 214.833 122.609 214.776 122.548 214.706C122.488 214.635 122.444 214.551 122.419 214.462C122.394 214.372 122.39 214.278 122.406 214.186L122.984 210.842C123.017 210.68 123.111 210.538 123.248 210.444C123.384 210.35 123.551 210.316 123.713 210.343C123.876 210.371 124.021 210.461 124.118 210.595C124.215 210.728 124.256 210.894 124.233 211.057L123.655 214.403C123.629 214.548 123.554 214.681 123.442 214.776C123.329 214.871 123.187 214.925 123.04 214.928Z" fill="black"/>
    <path d="M71.1285 122.657C74.549 119.408 78.0392 116.182 82.0351 113.673C86.1815 111.069 90.7844 109.292 95.3493 107.533L109.443 102.101C111.678 101.24 114.424 100.448 116.281 101.96C118.266 103.575 117.844 106.715 116.874 109.092C113.965 116.202 107.998 121.576 101.857 126.192C95.717 130.808 89.136 135.008 84.1511 140.85C80.0174 145.694 77.1595 151.47 73.9356 156.954C69.2408 164.946 63.7185 172.416 58.2058 179.867C54.8772 171.004 52.6474 161.765 51.5661 152.359C51.3521 150.503 50.9432 148.162 49.4343 146.881C49.1474 146.64 48.377 146.406 48.2709 146.032C48.144 145.593 49.0951 144.881 49.3724 144.585C50.3319 143.557 51.2956 142.537 52.2635 141.519C56.1797 137.398 60.1617 133.342 64.2099 129.354C66.4955 127.102 68.8017 124.87 71.1285 122.657Z" fill="#FBD2B5"/>
    <path d="M102.366 112.695C100.187 112.695 98.2248 111.814 97.1169 110.265C97.0639 110.198 97.0252 110.12 97.0031 110.038C96.9809 109.955 96.9756 109.869 96.9878 109.784C96.9999 109.699 97.0292 109.618 97.0736 109.544C97.1181 109.471 97.1769 109.408 97.2465 109.358C97.3163 109.308 97.3952 109.273 97.4789 109.254C97.5626 109.236 97.649 109.235 97.7331 109.251C97.8173 109.266 97.8973 109.299 97.9685 109.347C98.0397 109.395 98.1004 109.456 98.1471 109.528C99.3835 111.254 101.838 111.658 103.723 111.295C105.895 110.875 107.825 109.634 109.692 108.434C109.834 108.343 110.006 108.312 110.17 108.348C110.334 108.384 110.478 108.483 110.569 108.625C110.66 108.766 110.691 108.938 110.655 109.102C110.62 109.267 110.52 109.41 110.379 109.501C108.5 110.707 106.375 112.071 103.964 112.546C103.437 112.646 102.903 112.697 102.366 112.695ZM86.2436 123.325C86.0836 123.325 85.9296 123.263 85.8125 123.155C83.6758 121.172 81.877 118.853 80.4868 116.292C80.4387 116.219 80.4066 116.136 80.392 116.049C80.3776 115.964 80.381 115.875 80.4023 115.789C80.4237 115.705 80.4622 115.626 80.5158 115.556C80.5693 115.487 80.6367 115.43 80.7136 115.388C80.7903 115.346 80.8751 115.32 80.9623 115.312C81.0494 115.304 81.1373 115.315 81.2202 115.344C81.3031 115.371 81.3793 115.417 81.444 115.475C81.5088 115.534 81.5606 115.605 81.5963 115.686C82.9206 118.127 84.6337 120.335 86.6684 122.226C86.7616 122.312 86.8265 122.426 86.8549 122.549C86.8831 122.673 86.8735 122.803 86.8269 122.922C86.7804 123.041 86.6993 123.142 86.594 123.214C86.4889 123.285 86.3645 123.325 86.2372 123.325H86.2436ZM81.5884 123.548C81.4948 123.55 81.4021 123.531 81.3168 123.491C81.2317 123.453 81.1561 123.396 81.0954 123.325L78.5974 120.288C78.5442 120.223 78.504 120.148 78.4795 120.069C78.4549 119.99 78.4464 119.906 78.4543 119.822C78.4624 119.739 78.4866 119.658 78.5258 119.585C78.5651 119.511 78.6183 119.446 78.6828 119.392C78.7474 119.34 78.8217 119.3 78.9016 119.276C78.9815 119.251 79.0655 119.243 79.1485 119.251C79.2316 119.261 79.3123 119.284 79.3858 119.324C79.4593 119.364 79.5243 119.417 79.577 119.482L82.075 122.519C82.1818 122.649 82.2325 122.816 82.2162 122.984C82.1999 123.15 82.1178 123.304 81.9878 123.412C81.8746 123.502 81.7334 123.55 81.5884 123.548Z" fill="black"/>
    <path d="M81.0396 47.5489C80.3278 47.547 79.6391 47.2957 79.0932 46.8388C78.5473 46.3818 78.1788 45.7481 78.0518 45.0477C77.3211 40.9266 77.0866 38.1624 78.1612 37.1226C78.716 36.5837 80.4357 36.3839 85.6108 35.9021C88.6731 35.6168 92.1443 35.295 95.335 34.7926C96.2115 34.6547 96.9691 34.8338 97.5857 35.3236C99.1089 36.5361 99.3086 39.3448 99.4545 41.3942C99.4909 41.9141 99.5226 42.3643 99.5718 42.7034C99.6681 43.3527 99.5065 44.0138 99.1213 44.5454C98.7361 45.0769 98.1581 45.4363 97.5112 45.547C92.3076 46.4441 86.9438 46.9735 81.756 47.495L81.3439 47.5346C81.2428 47.5451 81.1412 47.5498 81.0396 47.5489ZM79.0346 38.0498C78.5163 38.6014 78.6082 40.8823 79.3056 44.829C79.3847 45.2661 79.6253 45.6575 79.9797 45.9253C80.3343 46.1932 80.7765 46.3178 81.2187 46.2745L81.6324 46.2333C86.798 45.7198 92.138 45.1888 97.2972 44.2996C97.6192 44.2443 97.9067 44.0653 98.0983 43.8008C98.2899 43.5362 98.3705 43.2072 98.3228 42.8841C98.2673 42.5006 98.234 42.0298 98.196 41.4846C98.0739 39.7727 97.89 37.1844 96.8027 36.3174C96.4714 36.0543 96.0578 35.9655 95.5347 36.0463C92.306 36.5535 88.8126 36.8785 85.7313 37.1654C82.8386 37.4301 79.564 37.7328 79.0346 38.0498Z" fill="#1B5EC9"/>
    <path d="M84.8899 47.1748C84.7644 47.175 84.6419 47.1376 84.538 47.067C84.3984 46.9738 84.3014 46.8289 84.2684 46.6643C84.2355 46.4997 84.2692 46.3287 84.3621 46.1889C85.6301 44.2869 86.9077 40.8838 87.7493 38.6331C88.2248 37.373 88.4562 36.7548 88.6274 36.4711C88.7146 36.3274 88.8553 36.2242 89.0188 36.1841C89.182 36.1441 89.3546 36.1708 89.4984 36.2579C89.6422 36.3451 89.7453 36.4859 89.7853 36.6493C89.8254 36.8125 89.7988 36.9851 89.7116 37.1289C89.5943 37.3223 89.2757 38.175 88.9381 39.0769C88.0695 41.3784 86.7698 44.8654 85.4177 46.8927C85.3597 46.9795 85.2813 47.0507 85.1892 47.1C85.0971 47.1491 84.9944 47.1748 84.8899 47.1748Z" fill="#1B5EC9"/>
    <path d="M112.162 36.7516C113.747 36.2095 115.627 37.85 115.299 39.5C114.971 41.1501 112.614 41.9505 111.351 40.8426C110.087 39.7346 110.563 37.2921 112.162 36.7516Z" fill="black"/>
    <path d="M119.39 41.1771C120.816 41.529 122.362 40.1247 122.151 38.6759C121.94 37.2272 120.005 36.2477 118.791 37.0671C116.549 38.5808 117.968 40.8237 119.39 41.1771Z" fill="#FF5400"/>
    <path d="M124.674 38.5759C124.559 38.8807 124.516 39.2077 124.548 39.5318C124.58 39.8558 124.686 40.1682 124.858 40.4446C125.75 41.9361 128.262 41.7396 128.938 40.1276C129.132 39.6508 129.155 39.121 129.002 38.6291C128.849 38.1373 128.529 37.7141 128.098 37.4321C127.667 37.1501 127.151 37.0268 126.639 37.0834C126.128 37.14 125.651 37.3728 125.292 37.7421C125.041 37.9839 124.832 38.2657 124.674 38.5759Z" fill="#1B5EC9"/>
    <path d="M94.6886 187.054C95.2497 186.944 96.8014 186.065 93.056 185.152C91.5661 184.789 87.7145 185.004 86.7286 180.996C86.326 179.36 86.7793 176.616 86.5479 174.973C86.429 174.126 86.0851 172.923 84.9629 172.537C83.2685 171.948 81.563 173.204 81.5884 177.249C81.6058 180.013 82.7327 184.63 84.8931 186.203C86.96 187.71 92.1716 187.537 94.6886 187.054ZM60.4645 177.444C60.3476 177.444 60.2327 177.41 60.133 177.35C60.0331 177.288 59.9523 177.201 59.8992 177.097C59.8462 176.992 59.8231 176.875 59.8326 176.759C59.8419 176.642 59.8835 176.529 59.9526 176.436C61.4251 174.429 62.4886 173.074 63.3556 171.985C65.1134 169.766 66.1754 168.414 68.6354 164.191C68.674 164.114 68.7281 164.044 68.7943 163.988C68.8606 163.933 68.9375 163.892 69.0204 163.866C69.1034 163.841 69.1906 163.833 69.2765 163.844C69.3626 163.854 69.4456 163.882 69.5206 163.925C69.5956 163.968 69.6609 164.027 69.7124 164.096C69.7639 164.166 69.8007 164.245 69.8203 164.329C69.84 164.413 69.8422 164.502 69.8268 164.586C69.8114 164.672 69.7786 164.752 69.7306 164.825C67.2263 169.126 66.085 170.574 64.3494 172.768C63.4523 173.904 62.4347 175.193 60.9749 177.182C60.9164 177.263 60.8397 177.328 60.751 177.374C60.6624 177.418 60.5642 177.444 60.4645 177.444ZM48.2741 146.666C48.137 146.666 48.0035 146.621 47.8937 146.539C47.784 146.456 47.704 146.341 47.6655 146.209C47.4356 145.417 48.2202 144.715 48.8511 144.149C48.9636 144.046 49.0698 143.951 49.1253 143.892C50.2744 142.678 51.4346 141.46 52.5743 140.275C57.2263 135.433 62.021 130.606 66.8268 125.913C66.9473 125.796 67.1094 125.731 67.2778 125.732C67.4459 125.734 67.6065 125.804 67.724 125.924C67.8416 126.045 67.9064 126.206 67.9043 126.374C67.9021 126.542 67.8333 126.704 67.7129 126.821C62.9166 131.5 58.1298 136.322 53.4888 141.153C52.3508 142.337 51.1921 143.551 50.0462 144.764C49.9574 144.859 49.8385 144.965 49.7006 145.081C49.5041 145.258 48.9985 145.715 48.9081 145.935C48.9303 146.086 48.897 146.241 48.8143 146.369C48.7315 146.498 48.6051 146.593 48.458 146.636C48.3985 146.655 48.3366 146.664 48.2741 146.666Z" fill="black"/>
    <path d="M71.1093 162.541C70.9941 162.541 70.8809 162.51 70.782 162.449C70.6833 162.391 70.6026 162.305 70.5486 162.204C70.4947 162.102 70.4695 161.986 70.4758 161.872C70.4822 161.757 70.5199 161.646 70.5847 161.551L72.3092 159.015C72.3553 158.943 72.4149 158.883 72.4847 158.837C72.5544 158.789 72.6327 158.756 72.7151 158.74C72.7976 158.723 72.8825 158.723 72.9649 158.74C73.0474 158.758 73.1257 158.789 73.1952 158.837C73.2648 158.885 73.3244 158.945 73.3704 159.015C73.4163 159.086 73.4477 159.165 73.4629 159.248C73.4782 159.33 73.4767 159.416 73.4588 159.496C73.4409 159.579 73.4068 159.656 73.3585 159.726L71.634 162.262C71.576 162.348 71.4978 162.418 71.4064 162.467C71.3149 162.516 71.2128 162.541 71.1093 162.541Z" fill="black"/>
    <path d="M97.4764 42.0916C97.3244 42.091 97.1778 42.036 97.063 41.9363C96.9482 41.8368 96.873 41.6992 96.8511 41.5489C96.8292 41.3985 96.862 41.2452 96.9436 41.1172C97.0253 40.9889 97.1502 40.8943 97.2957 40.8506C97.9782 40.6699 98.6769 40.5573 99.3816 40.5144C99.6162 40.4922 99.8571 40.47 100.084 40.4415C100.727 40.3654 101.653 40.2055 102.254 39.7109C102.302 39.6897 102.342 39.652 102.366 39.6044C102.389 39.5569 102.396 39.5027 102.384 39.4508C102.393 39.0879 102.327 38.817 102.185 38.6411C101.959 38.4109 101.659 38.2694 101.338 38.2415C100.901 38.1968 100.462 38.201 100.027 38.2543L97.2037 38.4873C97.0356 38.5011 96.8688 38.4477 96.7401 38.3385C96.6764 38.2844 96.6239 38.2185 96.5857 38.1441C96.5476 38.0698 96.5242 37.9888 96.5174 37.9054C96.5105 37.8222 96.5201 37.7385 96.5456 37.659C96.5712 37.5794 96.6121 37.5055 96.6661 37.4418C96.7752 37.3131 96.931 37.2331 97.0991 37.2193L99.9221 36.9863C100.455 36.9235 100.994 36.9235 101.528 36.9863C102.162 37.0582 102.748 37.3626 103.171 37.8405C103.507 38.2557 103.669 38.8075 103.647 39.4827C103.648 39.7005 103.604 39.9164 103.518 40.1167C103.409 40.3381 103.251 40.5317 103.056 40.6824C102.198 41.3909 101.032 41.5985 100.23 41.6954C99.9855 41.7239 99.7398 41.7477 99.4941 41.7699C98.8723 41.807 98.2554 41.9041 97.6523 42.0598C97.5954 42.0785 97.5361 42.0891 97.4764 42.0916ZM74.9012 44.8304C73.8899 44.8304 73.0958 44.561 72.8834 43.7336C72.8652 43.6795 72.8435 43.6266 72.8184 43.5751C72.7214 43.3914 72.6606 43.1907 72.6393 42.9839C72.5743 42.1232 73.0388 41.2134 73.855 40.6063C74.2925 40.2893 75.3085 40.1102 77.4245 39.8471C77.9159 39.7853 78.534 39.7092 78.6624 39.6696C78.7423 39.6452 78.8262 39.6368 78.9092 39.6448C78.9923 39.6529 79.073 39.6773 79.1467 39.7166C79.2202 39.756 79.2853 39.8094 79.3383 39.874C79.3912 39.9386 79.4308 40.0129 79.4549 40.0928C79.5047 40.253 79.4889 40.4263 79.411 40.5748C79.3332 40.7235 79.1997 40.835 79.0397 40.8853C78.5594 40.9909 78.0728 41.066 77.583 41.1104C76.7224 41.2166 74.9329 41.44 74.5984 41.6382C74.1499 41.971 73.8725 42.464 73.9042 42.8888C73.9042 42.9109 73.9438 42.9854 73.9676 43.0393C74.028 43.1598 74.0768 43.2855 74.1134 43.415C74.1134 43.415 74.3369 43.6527 75.5748 43.5164C76.4767 43.3942 77.3706 43.2191 78.2519 42.9918C78.6989 42.8856 79.0444 42.8016 79.3028 42.7604C79.4689 42.7337 79.6388 42.7742 79.775 42.8726C79.9113 42.9712 80.0029 43.1199 80.0295 43.2858C80.0563 43.4519 80.0159 43.6218 79.9173 43.7582C79.8189 43.8943 79.6702 43.9859 79.5041 44.0125C79.298 44.0458 78.9493 44.1282 78.5531 44.2249C77.3912 44.5023 76.0138 44.8304 74.9012 44.8304Z" fill="#1B5EC9"/>
    <path d="M78.6037 37.5743C77.6258 38.5253 78.1916 42.1978 78.6751 44.9368C78.7811 45.5318 79.1079 46.065 79.5903 46.4294C80.0726 46.7938 80.6746 46.9627 81.2761 46.9022C83.0069 46.731 83.1575 46.7247 84.89 46.5408L89.523 36.1589C84.107 36.7168 79.1934 37.0069 78.6037 37.5743Z" fill="#1B5EC9"/>
    <path d="M197.714 54.4473C197.583 54.4475 197.457 54.4065 197.353 54.331C197.25 54.2554 197.177 54.1494 197.145 54.0299C195.349 47.2112 190.004 41.2372 183.196 38.4444C183.058 38.3826 182.951 38.2725 182.898 38.1375C182.844 38.0025 182.847 37.853 182.908 37.7205C182.969 37.588 183.08 37.4829 183.221 37.4274C183.362 37.3719 183.519 37.3704 183.661 37.423C190.798 40.3452 196.401 46.6073 198.283 53.7557C198.305 53.8381 198.307 53.9241 198.289 54.0075C198.271 54.0907 198.233 54.1689 198.178 54.2361C198.123 54.3033 198.053 54.3576 197.972 54.395C197.891 54.4323 197.803 54.4516 197.714 54.4515V54.4473Z" fill="black"/>
    <path d="M200.099 51.2007C199.985 51.2004 199.874 51.1653 199.78 51.0999C199.689 51.0346 199.619 50.9423 199.582 50.8357C198.139 46.7811 195.801 43.0986 192.739 40.0588C192.651 39.9548 192.606 39.8222 192.613 39.6872C192.618 39.552 192.674 39.4239 192.77 39.3278C192.866 39.2315 192.994 39.1743 193.131 39.167C193.267 39.1596 193.401 39.2029 193.507 39.2883C196.687 42.4438 199.114 46.2669 200.611 50.4764C200.635 50.5438 200.646 50.6153 200.642 50.6867C200.637 50.7582 200.62 50.8282 200.588 50.8926C200.557 50.9571 200.513 51.0148 200.459 51.0625C200.406 51.1103 200.343 51.1469 200.275 51.1706C200.218 51.1899 200.159 51.2 200.099 51.2007ZM205.068 42.5436C204.935 42.545 204.806 42.4988 204.706 42.4134C204.605 42.3282 204.539 42.2095 204.52 42.0793C203.56 35.7637 199.418 29.9982 193.718 27.0344C193.654 27.0011 193.597 26.9556 193.551 26.9007C193.505 26.8457 193.47 26.7823 193.448 26.714C193.427 26.6456 193.419 26.5737 193.426 26.5024C193.433 26.4312 193.453 26.3619 193.486 26.2985C193.521 26.2351 193.566 26.1789 193.621 26.133C193.677 26.0873 193.74 26.0527 193.81 26.0313C193.878 26.0101 193.95 26.0025 194.022 26.0089C194.094 26.0154 194.164 26.0358 194.228 26.0691C200.232 29.1908 204.591 35.2641 205.61 41.9173C205.63 42.0601 205.595 42.2056 205.508 42.3218C205.422 42.4379 205.293 42.5152 205.149 42.5367C205.122 42.541 205.094 42.5433 205.068 42.5436Z" fill="black"/>
    <path d="M185.365 209.679C182.032 209.679 178.843 209.364 175.228 208.712C175.15 208.701 175.076 208.674 175.01 208.635C174.944 208.595 174.886 208.543 174.841 208.482C174.794 208.42 174.763 208.35 174.747 208.276C174.729 208.202 174.728 208.125 174.742 208.051C174.757 207.976 174.786 207.905 174.829 207.842C174.871 207.778 174.928 207.725 174.993 207.682C175.058 207.64 175.131 207.612 175.208 207.599C175.284 207.585 175.363 207.586 175.439 207.603C180.988 208.604 185.544 208.793 191.16 208.254C191.236 208.247 191.312 208.254 191.386 208.275C191.459 208.296 191.527 208.331 191.586 208.379C191.646 208.426 191.695 208.485 191.731 208.55C191.768 208.616 191.789 208.688 191.797 208.762C191.804 208.837 191.797 208.911 191.775 208.982C191.753 209.054 191.715 209.12 191.668 209.178C191.618 209.234 191.559 209.282 191.492 209.318C191.424 209.353 191.35 209.376 191.275 209.383C189.196 209.579 187.26 209.679 185.365 209.679ZM185.76 205.521C183.051 205.521 180.656 205.137 177.592 204.287C177.517 204.268 177.447 204.234 177.386 204.189C177.325 204.142 177.274 204.086 177.235 204.021C177.198 203.955 177.173 203.883 177.164 203.809C177.156 203.734 177.161 203.658 177.183 203.586C177.203 203.514 177.24 203.447 177.288 203.389C177.337 203.329 177.396 203.281 177.463 203.245C177.531 203.21 177.606 203.187 177.682 203.18C177.759 203.173 177.837 203.18 177.911 203.202C182.146 204.376 185.054 204.625 189.434 204.19C189.588 204.175 189.741 204.22 189.862 204.314C189.98 204.409 190.057 204.547 190.073 204.697C190.089 204.846 190.043 204.996 189.944 205.113C189.847 205.229 189.706 205.303 189.553 205.319C188.292 205.449 187.026 205.516 185.76 205.521Z" fill="black"/>
</svg>
